<?xml version="1.0" encoding="utf-8"?>
<!-- Generator: Adobe Illustrator 25.4.1, SVG Export Plug-In . SVG Version: 6.00 Build 0)  -->
<svg version="1.1" id="レイヤー_1" xmlns="http://www.w3.org/2000/svg" xmlns:xlink="http://www.w3.org/1999/xlink" x="0px"
	 y="0px" viewBox="0 80 480 480" style="enable-background:new 0 0 1500 640;" xml:space="preserve">
<style type="text/css">
	.st0{fill:#009996;}
	.st1{fill:#00CC6D;}
</style>
<g>
	<polygon class="st0" points="305.96,406.54 305.96,545 365.91,510.38 365.91,371.92 	"/>
	<polygon class="st0" points="126.09,164.23 126.09,441.15 186.04,406.54 186.04,198.85 	"/>
	<polygon class="st0" points="305.96,198.85 305.96,268.08 246,302.69 246,371.92 305.96,337.31 365.91,302.69 365.91,164.23 	"/>
	<g>
		<polygon class="st1" points="246,371.92 305.96,406.54 365.91,371.92 305.96,337.31 		"/>
		<polygon class="st1" points="186.04,268.08 126.09,302.69 246,371.92 246,302.69 		"/>
	</g>
	<polygon class="st1" points="246,95 126.09,164.23 186.04,198.85 246,164.23 305.96,198.85 365.91,164.23 	"/>
</g>
</svg>
